<svg width="196" height="24" viewBox="0 0 196 24" fill="none" xmlns="http://www.w3.org/2000/svg">
<g id="Group 13">
<path id="DESIGNO" fill-rule="evenodd" clip-rule="evenodd" d="M92.972 21.384C94.412 21.384 95.672 21.146 96.752 20.67C97.832 20.194 98.674 19.504 99.278 18.6C99.882 17.696 100.184 16.612 100.184 15.348C100.184 14.484 100.042 13.74 99.758 13.116C99.474 12.492 99.064 11.946 98.528 11.478C97.992 11.01 97.348 10.584 96.596 10.2C95.844 9.81597 95.004 9.42797 94.076 9.03597C93.644 8.85997 93.248 8.69397 92.888 8.53797C92.528 8.38197 92.22 8.21797 91.964 8.04597C91.708 7.87397 91.51 7.66997 91.37 7.43397C91.23 7.19797 91.16 6.91197 91.16 6.57597C91.16 6.16797 91.266 5.79797 91.478 5.46597C91.69 5.13397 91.994 4.86797 92.39 4.66797C92.786 4.46797 93.268 4.36797 93.836 4.36797C94.34 4.36797 94.838 4.43997 95.33 4.58397C95.822 4.72797 96.286 4.91797 96.722 5.15397C97.158 5.38997 97.548 5.65597 97.892 5.95197L99.512 2.90397C99.08 2.53597 98.552 2.19597 97.928 1.88397C97.304 1.57197 96.632 1.31997 95.912 1.12797C95.192 0.935966 94.472 0.839966 93.752 0.839966C92.792 0.839966 91.922 0.999966 91.142 1.31997C90.362 1.63997 89.69 2.07197 89.126 2.61597C88.562 3.15997 88.128 3.77997 87.824 4.47597C87.52 5.17197 87.368 5.89997 87.368 6.65997C87.368 7.29997 87.478 7.87797 87.698 8.39397C87.918 8.90997 88.216 9.37197 88.592 9.77997C88.968 10.188 89.398 10.546 89.882 10.854C90.366 11.162 90.876 11.436 91.412 11.676C92.132 11.988 92.774 12.274 93.338 12.534C93.902 12.794 94.378 13.058 94.766 13.326C95.154 13.594 95.448 13.894 95.648 14.226C95.848 14.558 95.948 14.96 95.948 15.432C95.948 15.952 95.824 16.386 95.576 16.734C95.328 17.082 94.99 17.344 94.562 17.52C94.134 17.696 93.64 17.784 93.08 17.784C92.48 17.784 91.914 17.698 91.382 17.526C90.85 17.354 90.356 17.138 89.9 16.878C89.444 16.618 89.032 16.344 88.664 16.056C88.296 15.768 87.98 15.508 87.716 15.276L85.724 18.492C85.98 18.74 86.328 19.028 86.768 19.356C87.208 19.684 87.734 20.002 88.346 20.31C88.958 20.618 89.652 20.874 90.428 21.078C91.204 21.282 92.052 21.384 92.972 21.384ZM48.136 21C49.544 21 50.854 20.75 52.066 20.25C53.278 19.75 54.338 19.05 55.246 18.15C56.154 17.25 56.86 16.202 57.364 15.006C57.868 13.81 58.12 12.512 58.12 11.112C58.12 9.71997 57.866 8.42397 57.358 7.22397C56.85 6.02397 56.142 4.97197 55.234 4.06797C54.326 3.16397 53.268 2.45997 52.06 1.95597C50.852 1.45197 49.544 1.19997 48.136 1.19997H42.7V21H48.136ZM47.704 17.52H46.588V4.67997H47.704C48.6 4.67997 49.428 4.83997 50.188 5.15997C50.948 5.47997 51.608 5.92997 52.168 6.50997C52.728 7.08997 53.164 7.76997 53.476 8.54997C53.788 9.32997 53.944 10.18 53.944 11.1C53.944 12.028 53.788 12.882 53.476 13.662C53.164 14.442 52.728 15.12 52.168 15.696C51.608 16.272 50.948 16.72 50.188 17.04C49.428 17.36 48.6 17.52 47.704 17.52ZM78.06 17.592V21H67.044V1.19997H78.06V4.60797H70.932V9.37197H77.772V12.78H70.932V17.592H78.06ZM109.168 1.19997H113.056V21H109.168V1.19997ZM131.748 21.384C132.916 21.384 134.044 21.186 135.132 20.79C136.22 20.394 137.196 19.834 138.06 19.11C138.924 18.386 139.606 17.526 140.106 16.53C140.606 15.534 140.856 14.432 140.856 13.224V10.224H131.7V13.236H136.896V13.536C136.896 14.152 136.76 14.72 136.488 15.24C136.216 15.76 135.848 16.212 135.384 16.596C134.92 16.98 134.39 17.278 133.794 17.49C133.198 17.702 132.58 17.808 131.94 17.808C131.14 17.808 130.394 17.644 129.702 17.316C129.01 16.988 128.406 16.52 127.89 15.912C127.374 15.304 126.972 14.58 126.684 13.74C126.396 12.9 126.252 11.964 126.252 10.932C126.252 9.98797 126.38 9.11397 126.636 8.30997C126.892 7.50597 127.268 6.80397 127.764 6.20397C128.26 5.60397 128.87 5.13797 129.594 4.80597C130.318 4.47397 131.152 4.30797 132.096 4.30797C133.056 4.30797 134.03 4.48597 135.018 4.84197C136.006 5.19797 136.848 5.69997 137.544 6.34797L139.368 3.33597C138.72 2.79997 137.992 2.34597 137.184 1.97397C136.376 1.60197 135.534 1.31997 134.658 1.12797C133.782 0.935966 132.912 0.839966 132.048 0.839966C130.52 0.839966 129.14 1.10997 127.908 1.64997C126.676 2.18997 125.624 2.93397 124.752 3.88197C123.88 4.82997 123.212 5.92197 122.748 7.15797C122.284 8.39397 122.052 9.70797 122.052 11.1C122.052 12.556 122.3 13.908 122.796 15.156C123.292 16.404 123.98 17.494 124.86 18.426C125.74 19.358 126.768 20.084 127.944 20.604C129.12 21.124 130.388 21.384 131.748 21.384ZM153.668 7.67997V21H149.78V1.19997H153.668L162.2 14.52V1.19997H166.088V21H162.2L153.668 7.67997ZM185.032 21.384C186.416 21.384 187.712 21.12 188.92 20.592C190.128 20.064 191.188 19.33 192.1 18.39C193.012 17.45 193.726 16.358 194.242 15.114C194.758 13.87 195.016 12.536 195.016 11.112C195.016 9.68797 194.758 8.35397 194.242 7.10997C193.726 5.86597 193.012 4.77397 192.1 3.83397C191.188 2.89397 190.128 2.15997 188.92 1.63197C187.712 1.10397 186.416 0.839966 185.032 0.839966C183.648 0.839966 182.352 1.10397 181.144 1.63197C179.936 2.15997 178.876 2.89397 177.964 3.83397C177.052 4.77397 176.338 5.86597 175.822 7.10997C175.306 8.35397 175.048 9.68797 175.048 11.112C175.048 12.536 175.306 13.87 175.822 15.114C176.338 16.358 177.052 17.45 177.964 18.39C178.876 19.33 179.936 20.064 181.144 20.592C182.352 21.12 183.648 21.384 185.032 21.384ZM182.71 17.16C183.418 17.48 184.188 17.64 185.02 17.64C185.868 17.64 186.644 17.48 187.348 17.16C188.052 16.84 188.664 16.388 189.184 15.804C189.704 15.22 190.108 14.53 190.396 13.734C190.684 12.938 190.828 12.064 190.828 11.112C190.828 10.16 190.684 9.28597 190.396 8.48997C190.108 7.69397 189.704 7.00397 189.184 6.41997C188.664 5.83597 188.052 5.38397 187.348 5.06397C186.644 4.74397 185.868 4.58397 185.02 4.58397C184.188 4.58397 183.418 4.74397 182.71 5.06397C182.002 5.38397 181.388 5.83597 180.868 6.41997C180.348 7.00397 179.946 7.69397 179.662 8.48997C179.378 9.28597 179.236 10.16 179.236 11.112C179.236 12.064 179.378 12.938 179.662 13.734C179.946 14.53 180.348 15.22 180.868 15.804C181.388 16.388 182.002 16.84 182.71 17.16Z" fill="#333136"/>
<circle id="Oval" cx="12" cy="12" r="12" transform="matrix(0 -1 -1 0 24 24)" fill="url(#paint0_angular_0_52)"/>
</g>
<defs>
<radialGradient id="paint0_angular_0_52" cx="0" cy="0" r="1" gradientUnits="userSpaceOnUse" gradientTransform="translate(12 12) scale(12)">
<stop stop-color="#E7816B" stop-opacity="0.01"/>
<stop offset="0.999287" stop-color="#E7816B"/>
</radialGradient>
</defs>
</svg>
